<?xml version="1.0" encoding="utf-8"?>
<!-- Generator: Adobe Illustrator 17.1.0, SVG Export Plug-In . SVG Version: 6.00 Build 0)  -->
<!DOCTYPE svg PUBLIC "-//W3C//DTD SVG 1.1//EN" "http://www.w3.org/Graphics/SVG/1.1/DTD/svg11.dtd">
<svg version="1.1" id="tablet" xmlns="http://www.w3.org/2000/svg" xmlns:xlink="http://www.w3.org/1999/xlink" x="0px" y="0px"
	 viewBox="0 0 779.1401 1010" enable-background="new 0 0 779.1401 1010" xml:space="preserve">
<path id="tablet-tablet" fill="rgba(69,47,39, 1)" d="M715.6596,0H63.4604C28.6035,0,0,28.5244,0,63.4404v883.0401
	C0,981.3965,28.6035,1010,63.4604,1010h652.1992c34.9356,0,63.4805-28.6035,63.4805-63.5195V63.4404
	C779.1401,28.5244,750.5952,0,715.6596,0z M714.1811,881.5801H64.9004V128.4199h649.2807V881.5801z M388.1596,38.9795
	c9.2715,0,16.8267,7.5752,16.8267,16.9253c0,9.311-7.5552,16.7676-16.8267,16.7676c-9.311,0-16.9057-7.4566-16.9057-16.7676
	C371.2539,46.5547,378.8486,38.9795,388.1596,38.9795z M438.6206,954.9238c0,5.0489-4.1621,9.1913-9.252,9.1913h-73.8564
	c-5.0698,0-9.2124-4.1425-9.2124-9.1913v-4.6562c0-5.0899,4.1426-9.2324,9.2124-9.2324h73.8564c5.0899,0,9.252,4.1425,9.252,9.2324
	V954.9238z"/>
</svg>
